<svg width="271" height="103" viewBox="0 0 271 103" fill="none" xmlns="http://www.w3.org/2000/svg">
    <rect x="0.5" y="0.5" width="270" height="102" rx="4.5" stroke="#D1D1D1" />
    <line x1="52" y1="31.5" x2="181" y2="31.5" stroke="#E1E1E1" stroke-width="5" />
    <rect x="52" y="48" width="129" height="34" fill="#FFCB05" />
    <path
        d="M99.756 69.0376C99.148 69.0376 98.604 68.9296 98.124 68.7136C97.644 68.4976 97.264 68.1736 96.984 67.7416C96.712 67.3016 96.576 66.7536 96.576 66.0976V65.8456H97.572V66.0976C97.572 66.7936 97.776 67.3136 98.184 67.6576C98.592 67.9936 99.116 68.1616 99.756 68.1616C100.412 68.1616 100.912 68.0136 101.256 67.7176C101.6 67.4216 101.772 67.0496 101.772 66.6016C101.772 66.2896 101.692 66.0416 101.532 65.8576C101.38 65.6736 101.164 65.5256 100.884 65.4136C100.604 65.2936 100.276 65.1896 99.9 65.1016L99.276 64.9456C98.788 64.8176 98.356 64.6616 97.98 64.4776C97.604 64.2936 97.308 64.0536 97.092 63.7576C96.884 63.4536 96.78 63.0656 96.78 62.5936C96.78 62.1216 96.896 61.7136 97.128 61.3696C97.368 61.0256 97.7 60.7616 98.124 60.5776C98.556 60.3936 99.052 60.3016 99.612 60.3016C100.18 60.3016 100.688 60.4016 101.136 60.6016C101.592 60.7936 101.948 61.0816 102.204 61.4656C102.468 61.8416 102.6 62.3176 102.6 62.8936V63.3976H101.604V62.8936C101.604 62.4856 101.516 62.1576 101.34 61.9096C101.172 61.6616 100.936 61.4776 100.632 61.3576C100.336 61.2376 99.996 61.1776 99.612 61.1776C99.06 61.1776 98.616 61.3016 98.28 61.5496C97.944 61.7896 97.776 62.1336 97.776 62.5816C97.776 62.8776 97.848 63.1176 97.992 63.3016C98.136 63.4856 98.34 63.6376 98.604 63.7576C98.868 63.8696 99.184 63.9696 99.552 64.0576L100.176 64.2136C100.664 64.3176 101.1 64.4616 101.484 64.6456C101.876 64.8216 102.188 65.0656 102.42 65.3776C102.652 65.6816 102.768 66.0816 102.768 66.5776C102.768 67.0736 102.644 67.5056 102.396 67.8736C102.148 68.2416 101.796 68.5296 101.34 68.7376C100.892 68.9376 100.364 69.0376 99.756 69.0376ZM104.355 68.8696V63.0016H105.303V68.8696H104.355ZM104.835 62.0896C104.627 62.0896 104.451 62.0216 104.307 61.8856C104.171 61.7496 104.103 61.5776 104.103 61.3696C104.103 61.1536 104.171 60.9776 104.307 60.8416C104.451 60.7056 104.627 60.6376 104.835 60.6376C105.043 60.6376 105.215 60.7056 105.351 60.8416C105.487 60.9776 105.555 61.1536 105.555 61.3696C105.555 61.5776 105.487 61.7496 105.351 61.8856C105.215 62.0216 105.043 62.0896 104.835 62.0896ZM107.297 68.8696V63.0016H108.221V63.9976H108.389C108.517 63.7176 108.733 63.4656 109.037 63.2416C109.349 63.0096 109.805 62.8936 110.405 62.8936C110.845 62.8936 111.237 62.9856 111.581 63.1696C111.933 63.3536 112.213 63.6256 112.421 63.9856C112.629 64.3456 112.733 64.7896 112.733 65.3176V68.8696H111.785V65.3896C111.785 64.8056 111.637 64.3816 111.341 64.1176C111.053 63.8536 110.661 63.7216 110.165 63.7216C109.597 63.7216 109.133 63.9056 108.773 64.2736C108.421 64.6416 108.245 65.1896 108.245 65.9176V68.8696H107.297ZM114.368 65.9656V65.7976C114.368 65.1816 114.492 64.6536 114.74 64.2136C114.988 63.7736 115.324 63.4336 115.748 63.1936C116.172 62.9536 116.636 62.8336 117.14 62.8336C117.756 62.8336 118.228 62.9536 118.556 63.1936C118.892 63.4256 119.14 63.6856 119.3 63.9736H119.468V63.0016H120.368V70.2376C120.368 70.5576 120.28 70.8096 120.104 70.9936C119.928 71.1776 119.672 71.2696 119.336 71.2696H115.352V70.4296H119.084C119.324 70.4296 119.444 70.3096 119.444 70.0696V67.8376H119.276C119.18 68.0136 119.044 68.1856 118.868 68.3536C118.692 68.5216 118.464 68.6616 118.184 68.7736C117.904 68.8776 117.556 68.9296 117.14 68.9296C116.636 68.9296 116.172 68.8096 115.748 68.5696C115.324 68.3296 114.988 67.9896 114.74 67.5496C114.492 67.1016 114.368 66.5736 114.368 65.9656ZM117.392 68.0896C118 68.0896 118.492 67.8976 118.868 67.5136C119.252 67.1296 119.444 66.6016 119.444 65.9296V65.8336C119.444 65.1536 119.252 64.6256 118.868 64.2496C118.492 63.8656 118 63.6736 117.392 63.6736C116.792 63.6736 116.296 63.8656 115.904 64.2496C115.52 64.6256 115.328 65.1536 115.328 65.8336V65.9296C115.328 66.6016 115.52 67.1296 115.904 67.5136C116.296 67.8976 116.792 68.0896 117.392 68.0896ZM124.599 68.9776C124.175 68.9776 123.783 68.8856 123.423 68.7016C123.071 68.5176 122.791 68.2456 122.583 67.8856C122.383 67.5176 122.283 67.0736 122.283 66.5536V63.0016H123.231V66.4816C123.231 67.0656 123.375 67.4896 123.663 67.7536C123.959 68.0176 124.355 68.1496 124.851 68.1496C125.411 68.1496 125.871 67.9656 126.231 67.5976C126.591 67.2296 126.771 66.6816 126.771 65.9536V63.0016H127.719V68.8696H126.795V67.8736H126.627C126.499 68.1536 126.279 68.4096 125.967 68.6416C125.655 68.8656 125.199 68.9776 124.599 68.9776ZM129.703 71.2696V63.0016H130.627V63.9736H130.795C130.947 63.6776 131.191 63.4136 131.527 63.1816C131.871 62.9496 132.347 62.8336 132.955 62.8336C133.459 62.8336 133.919 62.9576 134.335 63.2056C134.759 63.4456 135.095 63.7896 135.343 64.2376C135.599 64.6856 135.727 65.2256 135.727 65.8576V66.0136C135.727 66.6376 135.603 67.1776 135.355 67.6336C135.107 68.0896 134.771 68.4376 134.347 68.6776C133.931 68.9176 133.467 69.0376 132.955 69.0376C132.547 69.0376 132.199 68.9816 131.911 68.8696C131.631 68.7656 131.403 68.6296 131.227 68.4616C131.051 68.2936 130.915 68.1216 130.819 67.9456H130.651V71.2696H129.703ZM132.703 68.1976C133.311 68.1976 133.803 68.0056 134.179 67.6216C134.563 67.2296 134.755 66.6856 134.755 65.9896V65.8816C134.755 65.1856 134.563 64.6456 134.179 64.2616C133.803 63.8696 133.311 63.6736 132.703 63.6736C132.103 63.6736 131.607 63.8696 131.215 64.2616C130.831 64.6456 130.639 65.1856 130.639 65.8816V65.9896C130.639 66.6856 130.831 67.2296 131.215 67.6216C131.607 68.0056 132.103 68.1976 132.703 68.1976Z"
        fill="#2B2B2B" />
    <path fill-rule="evenodd" clip-rule="evenodd" d="M201.747 68.027L214 60L201.747 74L195 64.1604L201.747 68.027Z"
        fill="#2B2B2B" />
</svg>